<svg xmlns="http://www.w3.org/2000/svg" width="300" height="300"><rect x="0" y="0" width="100%" height="100%" fill="rgb(0,0,0)"></rect><rect x="0" y="0" width="50" height="50" fill="#ddd" fill-opacity="0.12400000000000001" stroke="#000" stroke-opacity="0.02"></rect><rect x="50" y="0" width="50" height="50" fill="#ddd" fill-opacity="0.14133333333333334" stroke="#000" stroke-opacity="0.02"></rect><rect x="100" y="0" width="50" height="50" fill="#ddd" fill-opacity="0.14133333333333334" stroke="#000" stroke-opacity="0.02"></rect><rect x="150" y="0" width="50" height="50" fill="#222" fill-opacity="0.098" stroke="#000" stroke-opacity="0.02"></rect><rect x="200" y="0" width="50" height="50" fill="#222" fill-opacity="0.046" stroke="#000" stroke-opacity="0.02"></rect><rect x="250" y="0" width="50" height="50" fill="#ddd" fill-opacity="0.12400000000000001" stroke="#000" stroke-opacity="0.02"></rect><rect x="0" y="50" width="50" height="50" fill="#222" fill-opacity="0.028666666666666667" stroke="#000" stroke-opacity="0.02"></rect><rect x="50" y="50" width="50" height="50" fill="#222" fill-opacity="0.06333333333333334" stroke="#000" stroke-opacity="0.02"></rect><rect x="100" y="50" width="50" height="50" fill="#ddd" fill-opacity="0.07200000000000001" stroke="#000" stroke-opacity="0.02"></rect><rect x="150" y="50" width="50" height="50" fill="#222" fill-opacity="0.06333333333333334" stroke="#000" stroke-opacity="0.02"></rect><rect x="200" y="50" width="50" height="50" fill="#ddd" fill-opacity="0.14133333333333334" stroke="#000" stroke-opacity="0.02"></rect><rect x="250" y="50" width="50" height="50" fill="#222" fill-opacity="0.06333333333333334" stroke="#000" stroke-opacity="0.02"></rect><rect x="0" y="100" width="50" height="50" fill="#222" fill-opacity="0.046" stroke="#000" stroke-opacity="0.02"></rect><rect x="50" y="100" width="50" height="50" fill="#222" fill-opacity="0.11533333333333334" stroke="#000" stroke-opacity="0.02"></rect><rect x="100" y="100" width="50" height="50" fill="#222" fill-opacity="0.028666666666666667" stroke="#000" stroke-opacity="0.02"></rect><rect x="150" y="100" width="50" height="50" fill="#ddd" fill-opacity="0.05466666666666667" stroke="#000" stroke-opacity="0.02"></rect><rect x="200" y="100" width="50" height="50" fill="#ddd" fill-opacity="0.07200000000000001" stroke="#000" stroke-opacity="0.02"></rect><rect x="250" y="100" width="50" height="50" fill="#ddd" fill-opacity="0.07200000000000001" stroke="#000" stroke-opacity="0.02"></rect><rect x="0" y="150" width="50" height="50" fill="#222" fill-opacity="0.08066666666666666" stroke="#000" stroke-opacity="0.02"></rect><rect x="50" y="150" width="50" height="50" fill="#ddd" fill-opacity="0.12400000000000001" stroke="#000" stroke-opacity="0.02"></rect><rect x="100" y="150" width="50" height="50" fill="#ddd" fill-opacity="0.02" stroke="#000" stroke-opacity="0.02"></rect><rect x="150" y="150" width="50" height="50" fill="#222" fill-opacity="0.046" stroke="#000" stroke-opacity="0.02"></rect><rect x="200" y="150" width="50" height="50" fill="#222" fill-opacity="0.13266666666666665" stroke="#000" stroke-opacity="0.02"></rect><rect x="250" y="150" width="50" height="50" fill="#222" fill-opacity="0.06333333333333334" stroke="#000" stroke-opacity="0.02"></rect><rect x="0" y="200" width="50" height="50" fill="#222" fill-opacity="0.06333333333333334" stroke="#000" stroke-opacity="0.02"></rect><rect x="50" y="200" width="50" height="50" fill="#222" fill-opacity="0.11533333333333334" stroke="#000" stroke-opacity="0.02"></rect><rect x="100" y="200" width="50" height="50" fill="#ddd" fill-opacity="0.03733333333333333" stroke="#000" stroke-opacity="0.02"></rect><rect x="150" y="200" width="50" height="50" fill="#ddd" fill-opacity="0.14133333333333334" stroke="#000" stroke-opacity="0.02"></rect><rect x="200" y="200" width="50" height="50" fill="#ddd" fill-opacity="0.12400000000000001" stroke="#000" stroke-opacity="0.02"></rect><rect x="250" y="200" width="50" height="50" fill="#222" fill-opacity="0.11533333333333334" stroke="#000" stroke-opacity="0.02"></rect><rect x="0" y="250" width="50" height="50" fill="#222" fill-opacity="0.046" stroke="#000" stroke-opacity="0.02"></rect><rect x="50" y="250" width="50" height="50" fill="#222" fill-opacity="0.046" stroke="#000" stroke-opacity="0.02"></rect><rect x="100" y="250" width="50" height="50" fill="#222" fill-opacity="0.028666666666666667" stroke="#000" stroke-opacity="0.02"></rect><rect x="150" y="250" width="50" height="50" fill="#ddd" fill-opacity="0.14133333333333334" stroke="#000" stroke-opacity="0.02"></rect><rect x="200" y="250" width="50" height="50" fill="#222" fill-opacity="0.13266666666666665" stroke="#000" stroke-opacity="0.02"></rect><rect x="250" y="250" width="50" height="50" fill="#ddd" fill-opacity="0.07200000000000001" stroke="#000" stroke-opacity="0.02"></rect></svg>